<svg width="29" height="29" viewBox="0 0 29 29" fill="none" xmlns="http://www.w3.org/2000/svg">
<g id="send 1" clip-path="url(#clip0_1437_47)">
<g id="Group">
<g id="Group_2">
<path id="Vector" d="M19.2408 6.80702L3.81908 14.3327C3.16937 14.6497 2.76135 15.2958 2.75416 16.0187C2.74703 16.7416 3.1422 17.3956 3.78548 17.7254L8.86596 20.3305L13.4386 15.1535C13.649 14.9152 14.0127 14.8927 14.251 15.1031C14.4892 15.3135 14.5118 15.6773 14.3013 15.9155L9.72873 21.0925L12.9413 25.8123C13.3481 26.41 14.0459 26.7214 14.7624 26.6249C15.4803 26.5283 16.07 26.0426 16.304 25.3599L21.8672 9.12674C22.1205 8.38766 21.9141 7.60725 21.3285 7.09003C20.7429 6.57282 19.943 6.46432 19.2408 6.80702Z" fill="white"/>
</g>
</g>
</g>
<defs>
<clipPath id="clip0_1437_47">
<rect width="19.6445" height="19.6445" fill="white" transform="translate(0.961914 15.3105) rotate(-48.5475)"/>
</clipPath>
</defs>
</svg>
