<svg width="53" height="57" viewBox="0 0 53 57" fill="none" xmlns="http://www.w3.org/2000/svg">
<g id="unicorn_face">
<path id="Vector" d="M31.8455 11.0482C31.8455 11.0482 36.3919 9.9305 40.0854 11.6004C43.5469 13.1679 44.0397 16.156 43.7291 17.8704C43.4186 19.5849 42.4165 21.0856 40.4083 21.2236C39.0378 21.3171 38.574 20.471 38.7645 20.1148C38.8639 19.9322 40.3172 18.9436 39.6506 17.7101C39.0916 16.6814 37.2076 17.6299 36.6693 18.525C36.1642 19.3622 35.5017 20.5735 35.5017 20.5735C35.5017 20.5735 29.7876 17.9417 29.9077 17.7725C30.0278 17.6032 31.8455 11.0482 31.8455 11.0482Z" fill="#E74B8C"/>
<path id="Vector_2" d="M32.1188 14.4771L33.9075 12.7626L36.8391 16.5879L35.1704 19.3844L30.9139 17.3805L32.1188 14.4771Z" fill="#FCD817"/>
<path id="Vector_3" d="M41.0542 16.147C41.2778 16.8551 41.0791 17.9906 41.9072 18.0886C42.7602 18.191 43.3771 17.0822 42.8595 15.3098C42.4124 13.7824 40.6484 12.874 39.9652 14.1208C39.4642 15.0382 40.6484 14.8512 41.0542 16.147Z" fill="#EF7FAD"/>
<path id="Vector_4" d="M36.9179 9.35602C37.0338 9.56531 39.0544 12.7627 39.0544 12.7627L37.1125 16.0847L34.7813 14.8111L34.2969 12.2817L36.9179 9.35602Z" fill="#BBD047"/>
<path id="Vector_5" d="M39.1331 6.91125L40.9011 9.31149L39.1703 12.5534L37.5596 11.6939L36.8185 9.41836L39.1331 6.91125Z" fill="#62A5A8"/>
<path id="Vector_6" d="M41.5429 4.29724L42.7644 5.67771L40.9591 9.16896L39.9281 8.35404L39.2117 6.80435L41.5429 4.29724Z" fill="#38B2E8"/>
<path id="Vector_7" d="M43.8741 2.56503C44.2923 3.01479 42.7686 5.65995 42.7686 5.65995C42.7686 5.65995 41.6423 4.27948 41.6423 4.19932C41.6382 4.11026 43.3897 2.03956 43.8741 2.56503Z" fill="#A37BCB"/>
<path id="Vector_8" d="M34.2926 12.1125C33.7294 11.9433 33.3402 13.0744 33.8454 14.2233C34.2967 15.2475 34.9509 16.0402 35.8287 16.5657C36.2635 16.8239 36.9177 17.1089 37.1703 16.6057C37.4436 16.0669 37.133 15.7908 36.5865 15.3722C36.0855 14.9848 35.5762 14.4103 35.2863 13.8671C34.9965 13.3238 34.7149 12.2372 34.2926 12.1125Z" fill="#A364B2"/>
<path id="Vector_9" d="M36.9757 9.08437C36.5203 8.94187 36.1807 9.92156 36.5906 10.9057C36.955 11.783 37.4063 12.4821 38.1103 12.9319C38.4581 13.1545 38.9881 13.3994 39.191 12.9675C39.4104 12.5044 39.2034 12.1793 38.7645 11.8186C38.3587 11.4891 38.0067 10.8834 37.7749 10.4203C37.5388 9.95718 37.3153 9.19124 36.9757 9.08437Z" fill="#A364B2"/>
<path id="Vector_10" d="M39.2986 6.41253C38.9218 6.52386 38.6568 7.24081 38.9963 7.97558C39.2986 8.63019 39.5926 8.97753 40.1806 9.31151C40.4745 9.47628 40.8141 9.68558 41.0004 9.4362C41.2364 9.12448 41.3234 8.67917 40.9549 8.41198C40.6153 8.16706 40.2344 7.8687 39.9818 7.34769C39.812 6.98698 39.6464 6.31011 39.2986 6.41253Z" fill="#A364B2"/>
<path id="Vector_11" d="M41.7913 3.93657C41.5346 3.86977 41.2199 4.44868 41.4476 4.9118C41.6505 5.32594 41.9114 5.58868 42.3089 5.80243C42.5035 5.9093 42.723 5.97165 42.8389 5.77125C42.9631 5.55305 43.0791 5.40165 42.8306 5.23243C42.6029 5.07657 42.2841 4.72477 42.1516 4.50211C42.0191 4.28391 41.9818 3.99 41.7913 3.93657Z" fill="#A364B2"/>
<path id="Vector_12" d="M32.181 53.393C32.5992 53.0946 30.5247 45.3373 29.709 43.271C28.8933 41.2003 28.4089 39.4681 28.4089 39.4681C28.4089 39.4681 32.3135 40.1138 34.8393 40.136C36.7647 40.1538 39.5596 39.8867 39.5596 39.8867L45.1577 31.9868C45.1577 31.9868 43.5843 28.9142 42.6526 27.6628C41.721 26.407 38.9219 22.3324 37.5224 20.8941C36.1229 19.4513 34.2016 17.9461 33.3818 17.572C32.5661 17.198 32.0402 16.9442 32.0402 16.9442C32.0402 16.9442 32.4501 14.25 32.2721 12.5578C32.0982 10.8656 29.8664 6.14087 29.5144 6.14087C29.0465 6.14087 27.0259 9.36048 26.6201 11.5514C26.2102 13.7424 21.7797 19.8877 21.7797 19.8877L8.84029 46.219C8.84029 46.219 8.60842 53.2416 8.66639 53.491C8.72436 53.7403 15.8959 54.8091 20.2684 54.8091C24.6409 54.8091 31.829 53.6468 32.181 53.393Z" fill="#DFDFDF"/>
<path id="Vector_13" d="M23.3656 30.8958C23.7963 30.8735 25.026 33.5231 26.2599 35.4736C27.2992 37.1123 28.5166 37.9005 29.8167 38.6308C31.1583 39.3834 33.1499 39.8733 32.4709 40.0202C31.7918 40.1672 27.7381 39.6818 26.38 39.0673C25.614 38.7244 24.5457 37.0277 23.9992 35.9011C23.4526 34.7744 22.4713 30.9358 23.3656 30.8958Z" fill="#B0B0B0"/>
<path id="Vector_14" d="M30.7275 25.8014C30.6405 27.1818 31.1084 28.3708 32.4458 28.4643C33.3899 28.5311 34.0979 27.5024 34.218 26.2467C34.3132 25.267 33.9323 24.0023 32.686 23.8153C31.5142 23.6371 30.8103 24.5411 30.7275 25.8014Z" fill="#303030"/>
<path id="Vector_15" d="M26.678 11.5692C26.678 11.5692 23.1626 13.2703 21.8086 12.9497C20.7611 12.7003 20.3967 11.8854 20.3511 11.0704C20.2932 9.97497 21.1958 10.0997 21.3407 9.6588C21.4857 9.21794 20.4091 8.43419 19.1545 8.68802C17.8999 8.93739 16.4051 10.1843 16.4341 12.1882C16.4631 14.1921 17.61 15.2697 17.61 15.2697C17.61 15.2697 14.5874 15.1139 12.5668 17.3404C10.2936 19.8475 10.7904 23.9533 10.7904 23.9533C10.7904 23.9533 9.59379 24.1404 9.15902 23.4813C8.72426 22.8222 8.8402 22.0697 9.13004 21.6333C9.41988 21.1924 8.57519 20.9118 8.02449 21.1612C7.46965 21.4106 4.91074 23.3833 6.30199 26.5673C7.16324 28.5445 9.33707 28.8429 9.33707 28.8429C9.33707 28.8429 5.69332 30.5751 4.36004 34.9436C2.89426 39.753 4.49668 42.9504 6.15707 46.0186C7.81746 49.0912 7.6684 49.2738 7.75949 50.2802C7.87543 51.536 8.22738 53.1035 8.66215 53.0679C9.10105 53.0367 9.62277 51.7186 9.88777 50.2802C10.1486 48.8374 11.7842 47.4258 13.0926 46.1433C14.4011 44.8608 17.6887 41.4719 18.6328 38.3726C19.8294 34.4538 19.2166 28.9987 19.2166 28.9987C19.2166 28.9987 22.8314 27.213 24.8437 23.6372C27.0217 19.7674 26.8271 16.9308 26.8271 16.9308C26.8271 16.9308 26.2722 15.2386 26.2432 14.0763C26.2143 12.914 26.678 11.5692 26.678 11.5692Z" fill="#E74B8C"/>
<path id="Vector_16" d="M20.9929 14.2678C20.7403 15.4345 18.7487 14.8334 18.3677 12.8562C17.9868 10.879 19.0385 10.0017 19.6513 10.3802C20.2642 10.7543 19.5064 11.7607 19.9122 12.6068C20.318 13.4529 21.1999 13.3238 20.9929 14.2678Z" fill="#F081AF"/>
<path id="Vector_17" d="M10.8898 25.6499C11.2376 26.7899 9.41985 27.1863 7.99548 25.9572C6.53384 24.6925 6.9479 22.8222 7.79259 22.9157C8.86501 23.036 8.40954 24.3407 9.16728 24.835C9.92501 25.3338 10.6082 24.7371 10.8898 25.6499Z" fill="#F081AF"/>
<path id="Vector_18" d="M23.2953 15.7374C24.6948 15.5504 24.8894 18.485 24.024 20.5022C22.6535 23.6996 20.3803 23.1029 18.8068 25.1736C17.5895 26.7767 17.8752 28.8429 16.6206 28.8118C15.366 28.7806 15.0471 26.5229 16.9684 23.7664C18.8938 21.0099 21.3119 21.0099 22.0407 19.3489C22.7736 17.6834 21.6639 15.9601 23.2953 15.7374Z" fill="#F081AF"/>
<path id="Vector_19" d="M16.1858 29.9384C17.7882 30.9225 16.6454 33.1535 15.7758 33.3539C14.5502 33.6344 13.9995 32.7572 13.8504 31.8799C13.7014 31.0026 14.5544 28.9364 16.1858 29.9384Z" fill="#F081AF"/>
<path id="Vector_20" d="M14.9601 35.2376C16.2271 35.4603 16.0863 36.8274 15.8627 38.2167C15.4818 40.5992 14.3183 42.8881 12.9477 44.1082C11.6227 45.2883 10.8774 44.9231 10.5006 44.4511C10.0534 43.8989 10.4716 42.9148 10.9975 42.2557C11.5233 41.5967 12.2024 40.7506 12.6579 40.0292C13.2127 39.1519 13.279 38.0119 13.3866 37.3662C13.5895 36.1149 13.7096 35.0149 14.9601 35.2376Z" fill="#F081AF"/>
<path id="Vector_21" d="M48.3046 41.5387C47.021 44.1438 44.0191 43.4803 44.0191 43.4803C44.0191 43.4803 41.191 42.0998 41.191 42.0063C41.191 41.9128 39.3278 39.3745 39.3278 39.3745C39.3278 39.3745 39.8246 37.0856 41.7459 34.5785C43.2655 32.6013 44.8638 31.6305 44.8638 31.6305L48.3626 35.0149C48.3626 35.0149 50.11 37.8693 48.3046 41.5387Z" fill="white"/>
<path id="Vector_22" d="M46.0023 34.6721C46.2052 35.487 45.5344 35.7987 45.3026 36.0837C45.0707 36.3642 45.6214 37.5577 44.8347 37.8694C44.0479 38.1811 43.1453 36.7739 43.4351 35.5493C43.7498 34.2401 45.6959 33.4519 46.0023 34.6721Z" fill="#90909B"/>
<path id="Vector_23" d="M44.5158 31.5281C44.7187 31.1095 45.1659 31.3188 45.6048 31.7597C46.0437 32.2005 48.5198 34.1421 49.2196 35.9189C49.733 37.2236 50.1015 39.7397 48.7682 41.7881C47.3853 43.9167 46.1431 44.1215 44.2508 43.9523C41.4807 43.7029 39.9487 41.2582 39.6547 40.8485C39.3607 40.4388 38.7231 39.5526 39.0709 39.1162C39.4187 38.6754 39.7458 39.3122 40.1971 39.9712C40.781 40.8173 41.2447 41.3294 41.8285 41.895C42.1681 42.2245 43.1411 42.7945 43.5469 42.888C43.9568 42.9815 42.7395 42.229 42.2633 41.3517C41.9403 40.7594 41.2737 39.3478 41.2737 39.3478L42.4124 38.9737C42.4124 38.9737 42.9672 40.2696 43.402 40.8351C43.8409 41.4007 45.2073 42.6743 45.6172 42.7678C46.0271 42.8613 47.5716 42.1221 48.2589 40.795C48.9214 39.5215 49.025 37.6912 48.3542 36.2484C47.6834 34.8056 45.994 33.3316 45.4682 32.8952C44.9506 32.4454 44.255 32.0625 44.5158 31.5281Z" fill="#AFAFAF"/>
<path id="Vector_24" d="M41.1909 38.1321C41.5056 37.8382 42.0273 38.0475 42.2965 38.4438C42.5697 38.8401 42.665 39.2988 42.1226 39.615C41.5801 39.9267 41.2282 39.5927 40.9756 39.2187C40.7272 38.8401 40.9011 38.4037 41.1909 38.1321Z" fill="#90909B"/>
</g>
</svg>
